<svg
  width="40"
  height="40"
  viewBox="0 0 40 40"
  fill="none"
  xmlns="http://www.w3.org/2000/svg"
>
<circle cx="20" cy="20" r="19.5" stroke="#B1B1B1" />
<path
    d="M11.1701 22.7798H15.9971C15.9971 22.7798 15.8354 23.6465 16.51 24.3163C17.1847 24.9861 19.5599 24.7891 19.5599 24.7891V22.7798H17.1465C17.1465 22.7798 19.1003 20.7312 19.1768 17.6188C19.2535 14.5064 17.0698 12.1425 17.0698 12.1425C17.0698 12.1425 19.2917 12.3 19.5599 12.6152V11.5153C19.5599 11.2307 19.7843 11 20.0611 11H20.6677C20.9445 11 21.169 11.2307 21.169 11.5155V13.1275C21.169 13.1275 25.0766 15.4126 25.2681 18.5643C25.4595 21.7161 21.3605 22.8587 21.3605 22.8587V24.8162C21.3605 24.8162 22.7779 24.8286 23.5824 24.5529C24.3869 24.2771 25.3299 23.0423 26.5237 22.5386C27.3641 22.184 29.3671 21.7556 29.7885 21.9132C30.2099 22.0707 29.8938 22.7815 29.7597 22.8651C29.6942 22.906 28.8759 23.3069 28.1613 24.0381C27.8344 24.3727 25.9958 27.8622 25.0382 27.9409C24.0805 28.0198 15.0395 28.0198 14.6181 27.9409C14.1966 27.8622 11.5533 25.774 11.1701 24.2376C10.787 22.7011 11.1701 22.7798 11.1701 22.7798Z"
    fill="#FFAF8E"
  />
<path
    d="M16.5103 14.1125L12.358 21.0465H16.7252C16.7252 21.0465 17.7978 19.7463 17.6446 17.8552C17.4914 15.9643 16.8698 14.2308 16.5103 14.1125Z"
    fill="#FFAF8E"
  />
</svg>
