<svg
  width="626"
  height="607"
  viewBox="0 0 626 607"
  fill="none"
  xmlns="http://www.w3.org/2000/svg"
>
<g filter="url(#filter0_bi_0_1)">
<rect
      x="24"
      y="22"
      width="578"
      height="562"
      rx="10"
      fill="#FF8D69"
      fill-opacity="0.05"
    />
<rect x="24.5" y="22.5" width="577" height="561" rx="9.5" stroke="#454545" />
</g>
<rect opacity="0.2" x="24" y="22" width="578" height="562" rx="10" />
<path
    d="M24.5 0L25.3379 22.1978L40.2483 5.73191L26.6218 23.275L48.6278 20.2456L26.9128 24.9254L45.7176 36.75L26.0748 26.3768L32.8795 47.5225L24.5 26.95L16.1205 47.5225L22.9252 26.3768L3.28238 36.75L22.0872 24.9254L0.37221 20.2456L22.3782 23.275L8.7517 5.73191L23.6621 22.1978L24.5 0Z"
    fill="white"
  />
<path
    d="M601.5 559L602.338 581.198L617.248 564.732L603.622 582.275L625.628 579.246L603.913 583.925L622.718 595.75L603.075 585.377L609.879 606.522L601.5 585.95L593.121 606.522L599.925 585.377L580.282 595.75L599.087 583.925L577.372 579.246L599.378 582.275L585.752 564.732L600.662 581.198L601.5 559Z"
    fill="white"
  />
<defs>
<filter
      id="filter0_bi_0_1"
      x="14"
      y="12"
      width="621"
      height="619"
      filterUnits="userSpaceOnUse"
      color-interpolation-filters="sRGB"
    >
<feFlood flood-opacity="0" result="BackgroundImageFix" />
<feGaussianBlur in="BackgroundImage" stdDeviation="5" />
<feComposite
        in2="SourceAlpha"
        operator="in"
        result="effect1_backgroundBlur_0_1"
      />
<feBlend
        mode="normal"
        in="SourceGraphic"
        in2="effect1_backgroundBlur_0_1"
        result="shape"
      />
<feColorMatrix
        in="SourceAlpha"
        type="matrix"
        values="0 0 0 0 0 0 0 0 0 0 0 0 0 0 0 0 0 0 127 0"
        result="hardAlpha"
      />
<feOffset dx="33" dy="47" />
<feGaussianBlur stdDeviation="57.5" />
<feComposite in2="hardAlpha" operator="arithmetic" k2="-1" k3="1" />
<feColorMatrix
        type="matrix"
        values="0 0 0 0 1 0 0 0 0 1 0 0 0 0 1 0 0 0 0.1 0"
      />
<feBlend mode="normal" in2="shape" result="effect2_innerShadow_0_1" />
</filter>
</defs>
</svg>
